<?xml version="1.0" standalone="no"?>
<!DOCTYPE svg PUBLIC "-//W3C//DTD SVG 20010904//EN"
 "http://www.w3.org/TR/2001/REC-SVG-20010904/DTD/svg10.dtd">
<svg version="1.0" xmlns="http://www.w3.org/2000/svg"
 width="640.000000pt" height="640.000000pt" viewBox="0 0 640.000000 640.000000"
 preserveAspectRatio="xMidYMid meet">
<metadata>
Created by potrace 1.14, written by Peter Selinger 2001-2017
</metadata>
<g transform="translate(0.000000,640.000000) scale(0.100000,-0.100000)"
fill="#000000" stroke="none">
<path d="M10 3175 l0 -3175 3175 0 3175 0 -2 3173 -3 3172 -3172 3 -3173 2 0
-3175z m4915 2653 c153 -101 426 -382 583 -600 219 -303 365 -610 502 -1053
74 -238 130 -657 130 -970 0 -824 -255 -1579 -736 -2175 -125 -155 -363 -386
-481 -468 l-31 -22 -1725 0 -1726 0 -68 52 c-87 67 -137 111 -249 225 -494
497 -804 1164 -906 1948 -18 136 -18 723 0 865 12 97 24 163 53 310 132 662
471 1286 929 1710 122 114 212 187 243 200 12 5 760 9 1728 9 l1706 1 48 -32z"/>
<path d="M1434 5717 c-166 -123 -341 -305 -496 -515 -393 -532 -626 -1224
-645 -1917 -18 -651 163 -1331 497 -1875 54 -88 171 -259 192 -282 7 -7 39
-44 70 -83 108 -132 260 -280 381 -371 l59 -44 1670 0 c1250 0 1675 3 1691 12
78 41 272 219 396 363 354 411 589 891 714 1460 57 257 93 614 82 808 -31 582
-134 994 -365 1462 -186 378 -448 716 -733 946 l-98 79 -1678 0 -1679 0 -58
-43z m1981 -823 c17 -7 45 -54 45 -78 0 -8 -13 -31 -30 -49 -25 -29 -30 -43
-30 -87 0 -51 -2 -56 -60 -116 l-60 -62 0 -174 0 -173 -45 -44 -44 -44 0 -318
c0 -176 3 -319 6 -319 4 0 22 14 40 32 28 27 33 39 33 76 0 35 -6 50 -25 68
-31 28 -32 57 -4 85 15 15 29 20 50 15 25 -5 37 4 109 76 44 45 80 84 80 88 0
4 -9 15 -20 25 -28 25 -25 66 5 95 26 25 34 80 15 110 -6 9 -5 19 2 28 9 10 9
18 0 32 -17 27 5 63 88 145 l70 69 0 59 c0 51 4 65 30 97 17 21 30 47 30 58 0
23 35 52 62 52 9 0 26 -10 38 -22 49 -53 -3 -118 -76 -95 -33 11 -53 -21 -59
-93 l-4 -64 -76 -76 -75 -75 0 -108 c0 -89 3 -109 16 -114 8 -3 20 -17 25 -31
13 -33 -1 -53 -122 -177 -84 -86 -97 -104 -92 -127 4 -20 -1 -32 -21 -49 -21
-18 -26 -32 -26 -66 0 -39 -6 -50 -50 -97 -47 -49 -50 -56 -50 -104 0 -40 -4
-52 -15 -52 -12 0 -15 20 -15 118 l0 118 -50 49 c-33 32 -50 58 -50 73 0 17
-26 51 -85 111 l-85 87 0 76 c0 57 -4 79 -16 89 -9 7 -23 28 -32 48 -22 44
-57 69 -106 75 -29 4 -50 16 -83 48 -41 41 -43 44 -43 103 0 55 -3 64 -31 91
-20 19 -41 29 -61 29 -22 0 -37 8 -52 28 -19 26 -19 30 -5 55 11 20 24 28 50
30 43 4 61 -14 61 -62 0 -25 8 -42 29 -62 26 -25 29 -34 29 -93 0 -62 2 -67
37 -103 30 -31 44 -38 75 -38 27 0 47 -8 73 -31 l35 -31 27 20 c27 20 28 20
55 0 38 -26 39 -80 3 -104 -23 -15 -25 -22 -25 -89 l0 -73 67 -65 c38 -37 72
-62 76 -58 5 5 6 34 2 65 -6 48 -10 56 -28 56 -32 0 -67 39 -67 74 0 66 78
100 127 54 27 -25 30 -63 8 -104 -10 -20 -15 -59 -15 -125 0 -88 2 -97 26
-127 51 -61 53 -52 50 184 l-3 215 -77 77 c-70 70 -76 80 -76 117 0 37 -6 47
-70 110 -39 39 -70 78 -70 89 0 11 -10 31 -22 45 -13 14 -15 19 -6 12 25 -19
27 -8 31 139 2 115 3 110 6 -50 2 -126 5 -167 12 -145 5 17 8 54 7 83 -1 40 3
55 16 65 9 7 19 25 20 41 4 32 20 46 47 39 21 -6 27 -47 9 -58 -7 -4 -9 2 -4
19 5 22 3 26 -15 26 -14 0 -21 -6 -21 -20 0 -11 6 -20 13 -21 7 0 6 -3 -3 -6
-43 -16 -50 -33 -50 -127 l0 -92 50 -49 50 -49 0 69 c0 57 -4 73 -22 92 -30
32 -16 76 25 81 52 6 76 -41 40 -80 -13 -15 -17 -42 -20 -129 l-3 -109 36 -40
c20 -22 40 -37 45 -34 5 3 9 -1 9 -9 0 -8 7 -21 16 -28 14 -11 23 -6 70 43 52
54 54 59 54 110 0 51 -3 57 -45 98 -45 44 -45 45 -45 112 l0 68 -70 72 -70 72
0 65 c0 53 -4 69 -22 88 -24 25 -19 46 15 67 39 25 75 -38 42 -74 -9 -10 -18
-42 -21 -74 l-5 -56 57 -60 c31 -33 61 -60 66 -60 4 0 8 26 8 58 0 49 -4 62
-25 82 -29 27 -33 71 -9 94 23 24 70 20 88 -6 22 -32 20 -55 -9 -84 -24 -24
-25 -29 -25 -163 0 -125 2 -141 21 -165 39 -49 49 -36 49 69 l0 94 55 58 c51
54 55 62 55 106 0 41 -4 52 -30 74 -71 59 -3 160 85 127z m-569 -106 c-1 -14
5 -23 14 -23 9 0 15 9 14 23 -1 25 14 30 23 6 3 -9 -3 -24 -14 -35 -19 -20
-19 -20 -37 0 -10 11 -16 27 -13 36 9 21 14 19 13 -7z m-176 -103 c-15 -18 -5
-35 22 -35 17 0 19 4 14 28 -5 20 -4 23 4 12 5 -8 10 -22 10 -30 0 -8 21 -37
48 -65 l47 -50 -48 45 c-31 29 -57 45 -74 45 -33 0 -52 27 -34 49 8 9 16 16
18 16 3 0 0 -7 -7 -15z m898 -58 c2 -10 -3 -26 -12 -36 -11 -12 -16 -43 -18
-106 -2 -68 -6 -89 -18 -93 -12 -4 -13 -2 -2 9 15 16 17 175 2 184 -17 11 -11
22 13 21 13 -1 22 5 22 14 0 9 -9 15 -22 14 -13 0 -23 3 -23 8 0 18 55 3 58
-15z m-146 -52 c-3 -21 0 -25 18 -25 18 0 21 4 18 25 -3 13 -1 22 3 19 5 -3 9
-14 9 -24 0 -10 7 -25 15 -34 22 -22 18 -32 -4 -12 -11 10 -25 15 -31 11 -6
-4 -20 1 -30 10 -15 14 -17 22 -9 36 13 26 17 24 11 -6z m193 -35 c0 -16 -8
-28 -22 -35 -20 -8 -23 -17 -23 -60 0 -47 -3 -52 -61 -111 -51 -51 -61 -67
-62 -98 -1 -21 -4 -31 -9 -23 -18 28 -5 54 54 114 l61 62 0 76 c-1 74 -1 76
17 60 22 -20 40 -12 40 17 0 16 -5 19 -25 16 -13 -3 -22 -1 -19 4 3 5 16 8 27
6 16 -2 22 -10 22 -28z m202 -110 c4 -12 3 -13 -5 -1 -15 21 -45 5 -39 -19 3
-13 0 -20 -8 -20 -15 0 -8 41 9 52 16 12 39 5 43 -12z m-1049 -28 c2 -13 -3
-25 -12 -28 -26 -10 -19 -35 22 -79 l37 -40 -38 35 c-22 19 -43 44 -48 55 -5
11 -14 27 -21 36 -18 26 -3 51 29 47 20 -2 29 -9 31 -26z m640 8 c5 -13 3 -13
-11 -2 -18 15 -37 8 -37 -13 0 -21 19 -28 35 -15 8 7 15 8 15 4 0 -5 -8 -14
-19 -21 -15 -10 -20 -8 -31 12 -7 13 -10 31 -6 40 7 20 47 16 54 -5z m37 -50
c-32 -32 -62 -57 -67 -54 -5 3 -6 10 -2 15 3 5 9 7 13 5 4 -3 30 17 56 44 27
28 52 50 54 50 3 0 -21 -27 -54 -60z m385 46 c0 -3 -4 -8 -10 -11 -5 -3 -10
-1 -10 4 0 6 5 11 10 11 6 0 10 -2 10 -4z m-330 -29 c0 -2 -10 -12 -22 -23
l-23 -19 19 23 c18 21 26 27 26 19z m440 -27 c11 -11 20 -29 20 -40 0 -43 -60
-76 -89 -47 -10 10 -21 3 -54 -33 l-42 -45 0 -105 c0 -103 1 -105 24 -108 29
-5 81 43 81 74 0 43 50 70 78 42 17 -17 15 -65 -4 -72 -9 -3 -28 -6 -43 -6
-17 0 -38 -11 -56 -30 -17 -18 -39 -30 -54 -30 -17 0 -43 -17 -78 -52 -44 -44
-53 -58 -53 -88 0 -28 -8 -44 -35 -70 -19 -19 -35 -40 -35 -47 0 -7 -6 -13
-13 -13 -8 0 -40 -24 -71 -52 -48 -45 -58 -60 -63 -95 -5 -37 -16 -53 -80
-115 -41 -40 -81 -86 -89 -103 -13 -29 -13 -29 -14 -6 0 18 24 49 84 111 73
74 83 89 79 113 -5 24 7 40 101 135 l106 108 0 142 c0 119 -2 142 -15 142 -22
0 -48 45 -40 70 4 11 17 28 31 36 18 13 24 26 26 58 l1 41 4 -40 c3 -25 13
-47 29 -62 27 -25 32 -74 9 -93 -11 -9 -15 -34 -15 -104 1 -78 3 -88 14 -73 7
9 18 17 24 17 6 0 20 12 31 26 19 24 21 40 21 143 l0 117 45 44 c32 32 43 49
39 63 -7 23 31 67 58 67 10 0 27 -9 38 -20z m-501 -37 c-25 -30 -56 -63 -61
-63 -2 0 -4 8 -4 19 0 10 5 17 11 15 6 -3 22 7 35 21 26 28 40 34 19 8z m230
-13 c-13 -16 -25 -28 -27 -25 -5 5 37 55 45 55 2 0 -6 -13 -18 -30z m85 -6 c3
-9 6 -21 5 -27 0 -7 -5 -1 -10 12 -7 17 -15 22 -29 18 -11 -3 -18 -1 -14 4 9
15 41 10 48 -7z m-616 -18 c2 -10 0 -22 -5 -27 -6 -6 -9 -1 -9 13 1 18 -4 22
-22 21 -14 -2 -21 1 -17 8 11 16 49 6 53 -15z m557 -40 c-12 -8 -15 -18 -10
-27 6 -11 5 -11 -5 -2 -10 9 -8 16 6 36 11 14 21 21 23 15 1 -5 -5 -15 -14
-22z m-1211 -18 c23 -32 20 -54 -9 -76 -30 -24 -30 -29 -8 -56 10 -12 -4 0
-30 25 -36 36 -47 54 -47 78 0 50 65 71 94 29z m932 -40 l29 -33 -32 29 c-31
28 -38 36 -30 36 2 0 16 -15 33 -32z m-779 -44 c-3 -3 -12 -4 -19 -1 -8 3 -5
6 6 6 11 1 17 -2 13 -5z m-90 -54 c-14 -20 -14 -20 -33 2 -14 17 -15 20 -2 9
21 -16 38 -7 39 22 1 17 2 18 6 5 2 -10 -2 -27 -10 -38z m101 15 c-1 -14 -6
-25 -11 -25 -5 0 -6 7 -3 16 3 9 6 20 6 25 0 5 2 9 5 9 3 0 4 -11 3 -25z
m-137 -52 c13 -16 12 -17 -3 -4 -10 7 -18 15 -18 17 0 8 8 3 21 -13z m174 -3
c10 -11 16 -20 13 -20 -3 0 -13 9 -23 20 -10 11 -16 20 -13 20 3 0 13 -9 23
-20z m-105 6 c0 -11 -19 -15 -25 -6 -3 5 1 10 9 10 9 0 16 -2 16 -4z m28 -43
c-10 -2 -28 -2 -40 0 -13 2 -5 4 17 4 22 1 32 -1 23 -4z m145 -157 l3 -81 2
94 c2 91 1 96 -25 125 l-28 31 34 -31 33 -32 -1 -99 c-1 -87 1 -102 19 -123
15 -17 20 -37 20 -77 l0 -55 111 -109 c61 -60 115 -109 120 -109 5 0 9 -6 9
-14 0 -7 7 -19 15 -26 17 -14 21 -55 5 -45 -6 4 -8 10 -5 14 2 5 -58 70 -135
147 l-140 138 0 55 c0 52 -2 58 -47 103 -47 48 -48 48 -112 48 -61 0 -67 2
-102 36 -27 26 -48 37 -74 40 -58 4 -84 56 -48 96 38 42 111 6 100 -50 -5 -24
0 -35 31 -66 36 -34 41 -36 104 -36 l67 0 4 53 3 52 2 -62 c3 -81 22 -83 22
-3 0 57 -3 63 -42 108 l-42 47 47 -44 46 -44 4 -81z m524 142 c-3 -8 -6 -5 -6
6 -1 11 2 17 5 13 3 -3 4 -12 1 -19z m-617 -13 c13 -14 21 -25 18 -25 -2 0
-15 11 -28 25 -13 14 -21 25 -18 25 2 0 15 -11 28 -25z m650 -15 c0 -5 -4 -10
-10 -10 -5 0 -10 5 -10 10 0 6 5 10 10 10 6 0 10 -4 10 -10z m610 -87 c0 -5
-22 -8 -49 -8 -27 0 -47 3 -44 8 2 4 24 7 49 7 24 0 44 -3 44 -7z m-27 -30
c-7 -2 -13 -12 -13 -20 0 -9 -3 -14 -6 -10 -10 10 4 37 18 36 10 0 10 -2 1 -6z
m-1211 -144 c-28 -11 -26 -44 3 -44 12 0 22 9 26 25 l7 25 1 -26 c1 -15 -6
-32 -14 -39 -21 -17 -19 -42 7 -76 l22 -29 -27 24 c-15 14 -27 33 -27 44 0 11
-7 28 -16 38 -23 26 -11 69 19 68 l22 0 -23 -10z m-232 -29 l0 -30 -87 0
c-127 0 -123 8 -124 -219 -1 -102 -4 -286 -8 -409 -6 -213 -5 -224 14 -248
l20 -25 899 0 c800 0 900 2 915 16 16 14 17 47 13 428 -3 333 -7 416 -18 435
-14 21 -21 22 -127 22 -113 0 -113 0 -142 30 l-29 30 202 0 c221 0 252 -6 290
-55 22 -27 22 -32 22 -441 0 -313 -3 -420 -12 -436 -18 -31 -40 -54 -65 -67
-15 -8 -305 -11 -1033 -11 -959 -1 -1014 0 -1044 18 -65 38 -66 42 -66 497 0
453 -2 436 64 476 27 16 51 19 174 19 l142 0 0 -30z m125 10 c11 -13 16 -29
12 -47 -4 -24 8 -40 106 -141 68 -68 113 -122 114 -135 1 -21 1 -21 -3 -1 -3
12 -58 74 -124 138 -65 64 -114 118 -109 122 13 8 11 37 -4 59 -10 13 -21 16
-40 11 -28 -7 -45 -42 -28 -59 17 -17 13 -31 -4 -17 -33 27 -5 90 40 90 12 0
30 -9 40 -20z m1215 -49 c16 -30 12 -38 -6 -13 -22 32 -58 26 -62 -11 -4 -33
21 -46 52 -28 15 9 13 5 -6 -13 -16 -15 -28 -31 -28 -35 0 -5 -7 -11 -15 -15
-12 -4 -13 -2 -3 14 10 16 9 25 -5 49 -21 35 -21 36 -1 55 21 22 61 20 74 -3z
m-809 -8 c13 -16 12 -17 -3 -4 -10 7 -18 15 -18 17 0 8 8 3 21 -13z m-434 -29
c-3 -3 -12 -4 -19 -1 -8 3 -5 6 6 6 11 1 17 -2 13 -5z m443 -4 c0 -5 -5 -10
-11 -10 -5 0 -7 5 -4 10 3 6 8 10 11 10 2 0 4 -4 4 -10z m575 -10 c-14 -15
-16 -23 -7 -32 17 -17 45 -1 39 22 -3 11 -1 18 4 14 14 -8 11 -40 -6 -54 -8
-7 -15 -20 -15 -29 0 -10 -17 -33 -37 -52 l-38 -34 33 35 c35 39 40 63 17 86
-19 19 -19 29 1 48 23 23 30 20 9 -4z m-800 -70 c10 -11 16 -20 13 -20 -3 0
-13 9 -23 20 -10 11 -16 20 -13 20 3 0 13 -9 23 -20z m909 -42 c-26 -31 -46
-50 -69 -67 -11 -8 2 8 30 37 50 53 74 70 39 30z m-799 -68 c10 -11 16 -20 13
-20 -3 0 -13 9 -23 20 -10 11 -16 20 -13 20 3 0 13 -9 23 -20z m588 -34 c-21
-24 -40 -42 -42 -40 -4 4 69 84 77 84 2 0 -14 -20 -35 -44z m-545 -42 c-3 -27
-4 -26 -9 8 -3 22 -1 34 4 29 5 -5 7 -21 5 -37z m643 9 c-4 -28 -6 -32 -9 -15
-3 22 3 52 11 52 1 0 1 -17 -2 -37z m-601 -110 c0 -28 45 -116 71 -140 118
-108 320 -48 360 106 l13 51 119 0 c117 0 118 0 115 -22 -3 -20 -12 -24 -60
-32 -38 -5 -58 -13 -62 -25 -3 -9 -12 -34 -20 -56 -21 -54 -20 -62 9 -97 14
-16 25 -35 25 -42 0 -12 -54 -66 -65 -66 -4 0 -23 11 -43 25 -39 27 -62 31
-90 15 -9 -5 -33 -16 -53 -24 -33 -13 -37 -18 -43 -65 -6 -43 -10 -51 -29 -53
-66 -4 -84 9 -90 67 -4 37 -7 41 -58 62 -69 28 -71 28 -119 -2 -22 -14 -42
-25 -44 -25 -3 0 -21 14 -41 31 l-35 31 30 41 c16 23 30 47 30 54 0 7 -11 37
-24 67 -24 53 -25 54 -78 63 -44 7 -54 12 -56 31 -3 22 -2 22 117 22 109 0
121 -2 121 -17z m-1762 -873 c17 0 59 1 92 3 53 2 62 -1 87 -26 l28 -27 0
-168 0 -167 -42 -3 -42 -3 -3 163 -3 163 -40 0 -40 0 -5 -160 -5 -160 -40 0
-40 0 -5 160 -5 160 -40 0 -40 0 -5 -160 -5 -160 -42 -3 -43 -3 0 164 c0 153
2 166 21 191 30 38 55 46 124 41 33 -3 75 -5 93 -5z m1789 -7 c45 -21 70 -72
46 -90 -28 -22 -69 -16 -87 12 -12 18 -25 25 -49 25 -52 0 -57 -12 -57 -132 0
-105 1 -109 24 -119 33 -16 74 -3 88 25 9 21 15 24 47 19 40 -7 51 -17 44 -43
-23 -86 -213 -109 -273 -33 -18 23 -20 40 -20 153 0 115 2 130 21 154 12 15
31 32 43 36 37 15 136 11 173 -7z m1503 -52 c0 -40 0 -40 43 -43 39 -3 42 -5
45 -35 3 -31 2 -32 -40 -35 l-43 -3 -3 -52 c-4 -70 9 -93 53 -93 34 0 35 -2
35 -36 l0 -37 -54 6 c-61 6 -102 28 -112 60 -9 29 -14 272 -5 284 8 13 30 21
59 22 19 1 22 -4 22 -38z m-2848 -51 c43 -12 68 -42 68 -83 0 -43 -36 -72
-108 -86 -40 -8 -62 -17 -59 -24 6 -19 57 -20 77 -2 14 12 25 14 51 7 43 -10
45 -37 6 -66 -23 -17 -43 -21 -100 -21 -98 0 -123 18 -133 91 -7 56 0 129 15
152 10 17 77 41 116 42 17 0 47 -5 67 -10z m300 0 c43 -12 68 -42 68 -83 0
-41 -37 -73 -94 -81 -63 -10 -76 -15 -76 -32 0 -20 66 -19 78 2 7 12 17 14 46
9 49 -10 57 -32 23 -61 -48 -41 -165 -44 -217 -4 -23 18 -25 25 -25 108 0 75
3 94 19 111 33 37 109 50 178 31z m290 0 c65 -19 78 -46 78 -172 l0 -109 -42
3 -43 3 -5 105 -5 105 -28 3 c-49 6 -57 -10 -57 -120 l0 -99 -42 3 -43 3 0
105 c0 121 12 150 67 167 44 14 75 15 120 3z m348 -19 c23 -17 25 -26 28 -104
2 -51 -2 -96 -8 -108 -30 -55 -167 -66 -230 -19 -17 13 -24 28 -24 54 0 48 26
73 93 87 60 13 84 26 75 40 -9 15 -61 10 -74 -6 -9 -11 -23 -14 -49 -9 -49 9
-53 12 -40 37 16 29 12 27 56 43 48 18 139 10 173 -15z m727 4 c13 -9 28 -27
33 -41 14 -36 12 -134 -3 -164 -37 -75 -193 -79 -237 -7 -14 22 -20 50 -20 92
0 107 47 149 154 140 27 -2 59 -11 73 -20z m286 14 c107 5 118 4 145 -16 27
-20 27 -22 30 -142 l3 -122 -43 3 -43 3 -3 102 c-3 104 -10 121 -47 107 -12
-5 -15 -27 -15 -111 l0 -104 -42 3 -43 3 -3 102 c-2 78 -6 102 -17 107 -37 14
-44 -3 -47 -107 l-3 -102 -40 0 -40 0 -3 109 c-3 123 6 149 61 165 17 6 55 8
82 5 28 -3 58 -6 68 -5z m399 1 c20 -6 46 -22 56 -35 43 -54 35 -182 -14 -218
-13 -10 -50 -21 -81 -25 -57 -7 -58 -8 -60 -40 -2 -43 -5 -46 -48 -38 l-35 7
0 143 c0 130 2 146 21 170 32 40 94 54 161 36z m196 -80 c3 -122 6 -130 45
-130 51 0 57 13 57 123 l0 98 38 -3 37 -3 3 -107 c3 -106 2 -107 -27 -140 -28
-31 -33 -33 -100 -33 -64 0 -72 3 -100 29 l-31 30 0 113 0 114 38 -3 37 -3 3
-85z m662 61 c18 -13 26 -29 28 -58 3 -34 -1 -44 -24 -62 -14 -11 -48 -23 -74
-27 -55 -7 -75 -17 -66 -33 10 -16 57 -14 76 4 11 10 27 13 53 8 31 -5 37 -10
35 -26 -2 -11 -16 -29 -31 -41 -41 -30 -153 -30 -194 0 -27 20 -28 25 -31 116
-2 84 0 96 17 112 43 39 162 43 211 7z m238 -8 c3 -30 1 -33 -25 -33 -59 0
-58 4 -63 -207 0 -8 -15 -13 -39 -13 -22 0 -41 5 -44 13 -9 24 2 201 14 223
15 29 74 54 119 51 32 -2 35 -5 38 -34z m234 27 c43 -12 68 -34 68 -59 0 -25
-65 -36 -94 -16 -23 17 -62 20 -70 6 -9 -15 17 -29 67 -36 66 -10 101 -41 101
-90 0 -45 -29 -71 -92 -81 -83 -13 -163 17 -170 63 -3 17 4 22 35 25 24 4 44
0 54 -8 19 -17 65 -18 75 -3 9 16 -11 26 -66 33 -67 9 -100 37 -100 85 0 44
23 69 72 81 48 11 78 11 120 0z m-1584 -538 c3 -100 11 -111 51 -69 13 15 19
30 15 40 -5 14 0 17 30 17 20 0 36 -2 36 -4 0 -2 -16 -20 -36 -40 l-36 -36 20
-27 c11 -16 32 -41 46 -56 14 -15 26 -30 26 -33 0 -2 -20 -4 -44 -4 -38 0 -43
3 -39 18 4 19 -40 82 -58 82 -5 0 -9 -18 -9 -40 0 -22 5 -40 10 -40 6 0 10 -4
10 -10 0 -5 -20 -10 -45 -10 -44 0 -60 12 -30 24 12 4 15 28 15 125 0 96 -3
120 -15 125 -20 7 -19 23 3 29 43 12 47 6 50 -91z m-1988 75 c16 -8 26 -23 28
-41 5 -43 -13 -54 -32 -18 -8 16 -23 32 -31 36 -27 10 -69 6 -87 -8 -54 -40
-48 -198 7 -220 26 -10 93 -7 100 4 8 13 45 13 45 0 0 -18 -65 -44 -113 -44
-56 0 -93 24 -119 75 -37 71 -8 182 55 213 39 19 113 20 147 3z m270 0 c16 -8
26 -23 28 -41 4 -35 -14 -58 -24 -30 -14 37 -36 54 -74 54 -42 0 -63 -18 -58
-51 2 -17 19 -29 73 -50 77 -32 95 -49 95 -91 0 -61 -82 -99 -169 -79 -52 11
-52 11 -58 54 -6 48 13 56 31 13 12 -28 22 -36 51 -42 61 -11 112 26 89 64 -5
8 -32 23 -59 34 -98 37 -122 62 -109 115 14 53 120 82 184 50z m319 -1 c11 -7
16 -76 5 -76 -3 0 -19 14 -34 30 -37 39 -86 41 -121 4 -21 -22 -24 -35 -24
-94 0 -59 3 -72 25 -95 22 -23 31 -26 70 -22 25 2 55 8 68 12 42 14 23 -16
-24 -36 -88 -39 -174 0 -193 89 -18 83 14 167 74 193 22 10 136 6 154 -5z
m778 -21 c26 -30 29 -62 9 -90 -12 -17 -12 -22 5 -44 29 -36 24 -75 -12 -105
-28 -24 -38 -26 -120 -26 -81 0 -106 8 -79 25 13 8 13 242 0 250 -6 4 -7 11
-4 17 4 7 37 9 93 5 77 -5 88 -8 108 -32z m1138 23 c19 -9 25 -19 25 -45 0
-18 -3 -33 -6 -33 -3 0 -19 14 -35 31 -23 25 -35 30 -66 27 -30 -2 -42 -10
-61 -38 -20 -29 -23 -44 -20 -92 6 -80 35 -111 98 -105 25 2 55 8 68 12 42 14
23 -16 -24 -36 -115 -52 -219 36 -199 168 7 45 44 99 79 113 31 13 111 12 141
-2z m270 0 c21 -9 25 -18 25 -52 l0 -41 -33 38 c-28 34 -36 38 -71 35 -45 -4
-67 -28 -50 -55 6 -10 38 -29 71 -43 78 -32 93 -46 93 -84 0 -44 -24 -74 -71
-86 -46 -13 -123 -4 -139 15 -6 8 -10 31 -8 52 l3 38 22 -37 c33 -56 107 -64
137 -15 17 27 -3 49 -69 74 -74 29 -95 48 -95 88 0 55 38 84 112 85 26 0 59
-5 73 -12z m273 -9 c43 -27 47 -101 6 -136 -17 -16 -38 -23 -67 -23 -58 0 -69
-10 -65 -56 3 -34 6 -39 31 -42 53 -6 26 -22 -38 -22 -60 0 -80 9 -55 25 13 8
13 242 0 250 -6 4 -7 11 -4 17 10 15 164 5 192 -13z m-2151 0 c42 -16 58 -51
28 -63 -11 -4 -19 3 -25 19 -10 27 -47 34 -68 13 -15 -15 -15 -61 0 -76 17
-17 73 -15 88 3 16 19 30 19 30 1 0 -9 12 -16 33 -18 40 -4 41 -21 1 -28 -23
-4 -30 -11 -32 -34 -2 -16 -1 -40 3 -53 5 -22 10 -24 35 -19 17 3 30 1 30 -4
0 -17 -46 -29 -77 -21 -15 4 -42 4 -60 -1 -42 -11 -99 12 -114 46 -14 29 2 81
28 90 12 5 11 10 -6 32 -34 43 -25 86 24 112 26 14 47 15 82 1z m653 -79 c26
0 40 -34 40 -97 0 -51 4 -69 17 -79 28 -20 10 -27 -71 -27 -81 0 -106 11 -106
48 0 30 19 44 71 53 35 6 45 12 47 30 8 51 -60 74 -78 27 -5 -14 -14 -25 -19
-25 -15 0 -22 32 -10 46 14 17 68 34 87 28 8 -2 17 -4 22 -4z m298 -18 c7 -9
12 -45 12 -84 0 -52 4 -70 15 -74 30 -12 14 -24 -30 -24 -42 0 -58 11 -35 25
17 10 12 121 -6 139 -18 19 -28 20 -55 6 -16 -9 -19 -22 -19 -80 0 -56 3 -70
15 -70 8 0 15 -4 15 -10 0 -5 -22 -10 -50 -10 -47 0 -63 11 -40 25 6 3 10 37
10 75 0 52 -4 69 -16 74 -30 12 -2 28 40 23 22 -3 50 -1 61 3 26 11 67 2 83
-18z"/>
<path d="M3007 4863 c-13 -12 -7 -51 8 -57 22 -8 45 4 45 23 0 30 -35 52 -53
34z"/>
<path d="M3350 4845 c-6 -8 -10 -22 -8 -32 4 -25 48 -30 65 -8 26 37 -27 76
-57 40z"/>
<path d="M3146 4764 c-9 -8 -16 -22 -16 -29 0 -21 31 -35 52 -24 22 12 24 55
2 63 -21 8 -20 8 -38 -10z"/>
<path d="M3730 4595 c-18 -22 -1 -50 31 -50 20 0 24 5 24 30 0 23 -5 31 -21
33 -11 2 -27 -4 -34 -13z"/>
<path d="M2490 4485 c-20 -25 -8 -50 25 -50 21 0 31 5 33 18 4 21 -14 47 -33
47 -7 0 -18 -7 -25 -15z"/>
<path d="M2997 4483 c-12 -12 -7 -41 7 -46 19 -8 38 16 30 37 -6 16 -25 21
-37 9z"/>
<path d="M2871 4086 c-20 -24 4 -58 37 -54 23 2 27 8 27 33 0 25 -4 31 -26 33
-14 2 -31 -4 -38 -12z"/>
<path d="M3470 3965 c-26 -31 13 -82 44 -56 19 16 21 42 4 59 -16 16 -33 15
-48 -3z"/>
<path d="M3016 3957 c-29 -21 -17 -61 18 -65 33 -4 49 13 39 43 -10 34 -30 42
-57 22z"/>
<path d="M3250 3675 c-26 -32 13 -81 48 -59 34 22 22 74 -18 74 -10 0 -23 -7
-30 -15z"/>
<path d="M2710 4401 c0 -22 23 -34 38 -19 15 15 3 38 -19 38 -12 0 -19 -7 -19
-19z"/>
<path d="M3870 4331 c-25 -47 36 -83 64 -38 8 12 8 22 0 35 -16 25 -51 27 -64
3z"/>
<path d="M3614 4136 c-12 -31 0 -51 31 -51 27 0 30 3 30 30 0 25 -4 30 -28 33
-17 2 -29 -2 -33 -12z"/>
<path d="M3904 4065 c-9 -23 3 -45 25 -45 20 0 37 32 26 50 -9 15 -45 12 -51
-5z"/>
<path d="M2416 4211 c-21 -24 -14 -57 15 -66 43 -14 70 53 30 75 -25 13 -25
13 -45 -9z"/>
<path d="M2415 3951 c-9 -30 5 -51 35 -51 33 0 49 32 30 55 -18 21 -57 19 -65
-4z"/>
<path d="M4162 3318 c-8 -8 -12 -51 -12 -129 0 -126 7 -144 52 -137 22 3 23 6
26 127 3 127 -3 151 -37 151 -9 0 -22 -5 -29 -12z"/>
<path d="M1540 2165 c-19 -23 -4 -34 36 -25 41 10 48 15 39 29 -9 16 -61 13
-75 -4z"/>
<path d="M1842 2168 c-7 -7 -12 -16 -12 -20 0 -11 62 -10 80 2 13 9 13 11 0
20 -21 13 -54 12 -68 -2z"/>
<path d="M2453 2063 c-7 -2 -13 -11 -13 -19 0 -23 74 -15 78 9 3 13 -3 17 -25
16 -15 0 -34 -3 -40 -6z"/>
<path d="M3181 2166 c-7 -8 -11 -37 -9 -67 3 -59 20 -76 61 -65 25 6 27 10 27
64 0 32 -5 63 -12 70 -16 16 -53 15 -67 -2z"/>
<path d="M3914 2172 c-15 -9 -23 -92 -13 -120 11 -30 64 -30 80 -1 14 27 6
109 -12 120 -17 11 -40 11 -55 1z"/>
<path d="M4717 2173 c-16 -16 -5 -33 21 -33 34 0 57 14 48 29 -8 12 -58 15
-69 4z"/>
<path d="M2987 1753 c-4 -3 -7 -26 -7 -50 0 -45 3 -48 60 -43 77 6 61 100 -17
100 -16 0 -33 -3 -36 -7z"/>
<path d="M2980 1576 c0 -46 3 -56 20 -61 30 -10 79 4 90 25 27 50 -3 90 -68
90 l-42 0 0 -54z"/>
<path d="M4674 1746 c-3 -7 -4 -35 -2 -62 3 -43 6 -49 27 -52 39 -6 67 6 79
33 15 32 6 72 -18 85 -27 15 -80 12 -86 -4z"/>
<path d="M2578 1609 c-12 -6 -18 -22 -18 -44 0 -41 26 -60 71 -50 27 6 29 9
29 56 0 49 0 49 -32 49 -18 0 -41 -5 -50 -11z"/>
<path d="M3253 1569 c-27 -10 -31 -44 -7 -53 28 -11 54 3 54 29 0 27 -16 36
-47 24z"/>
</g>
</svg>
